<mxfile host="app.diagrams.net" agent="Mozilla/5.0 (Windows NT 10.0; Win64; x64) AppleWebKit/537.36 (KHTML, like Gecko) Chrome/127.0.0.0 Safari/537.36" version="24.7.7">
  <diagram id="C5RBs43oDa-KdzZeNtuy" name="Page-1">
    <mxGraphModel dx="1050" dy="557" grid="1" gridSize="10" guides="1" tooltips="1" connect="1" arrows="1" fold="1" page="1" pageScale="1" pageWidth="827" pageHeight="1169" math="0" shadow="0">
      <root>
        <mxCell id="WIyWlLk6GJQsqaUBKTNV-0" />
        <mxCell id="WIyWlLk6GJQsqaUBKTNV-1" parent="WIyWlLk6GJQsqaUBKTNV-0" />
        <mxCell id="zkfFHV4jXpPFQw0GAbJ--0" value="Learner" style="swimlane;fontStyle=1;align=center;verticalAlign=top;childLayout=stackLayout;horizontal=1;startSize=26;horizontalStack=0;resizeParent=1;resizeLast=0;collapsible=1;marginBottom=0;rounded=0;shadow=0;strokeWidth=1;fontSize=14;" parent="WIyWlLk6GJQsqaUBKTNV-1" vertex="1">
          <mxGeometry x="60" y="90" width="280" height="240" as="geometry">
            <mxRectangle x="230" y="140" width="160" height="26" as="alternateBounds" />
          </mxGeometry>
        </mxCell>
        <mxCell id="zkfFHV4jXpPFQw0GAbJ--1" value="+learner_id: int" style="text;align=left;verticalAlign=top;spacingLeft=4;spacingRight=4;overflow=hidden;rotatable=0;points=[[0,0.5],[1,0.5]];portConstraint=eastwest;" parent="zkfFHV4jXpPFQw0GAbJ--0" vertex="1">
          <mxGeometry y="26" width="280" height="26" as="geometry" />
        </mxCell>
        <mxCell id="zkfFHV4jXpPFQw0GAbJ--2" value="+name: String" style="text;align=left;verticalAlign=top;spacingLeft=4;spacingRight=4;overflow=hidden;rotatable=0;points=[[0,0.5],[1,0.5]];portConstraint=eastwest;rounded=0;shadow=0;html=0;" parent="zkfFHV4jXpPFQw0GAbJ--0" vertex="1">
          <mxGeometry y="52" width="280" height="26" as="geometry" />
        </mxCell>
        <mxCell id="zkfFHV4jXpPFQw0GAbJ--3" value="+email: String" style="text;align=left;verticalAlign=top;spacingLeft=4;spacingRight=4;overflow=hidden;rotatable=0;points=[[0,0.5],[1,0.5]];portConstraint=eastwest;rounded=0;shadow=0;html=0;" parent="zkfFHV4jXpPFQw0GAbJ--0" vertex="1">
          <mxGeometry y="78" width="280" height="26" as="geometry" />
        </mxCell>
        <mxCell id="ysmQvF6z4jJgy9oGwFPe-0" value="+current_batch: Batch" style="text;align=left;verticalAlign=top;spacingLeft=4;spacingRight=4;overflow=hidden;rotatable=0;points=[[0,0.5],[1,0.5]];portConstraint=eastwest;rounded=0;shadow=0;html=0;" vertex="1" parent="zkfFHV4jXpPFQw0GAbJ--0">
          <mxGeometry y="104" width="280" height="26" as="geometry" />
        </mxCell>
        <mxCell id="ysmQvF6z4jJgy9oGwFPe-1" value="-previous_batches: List&lt;LearnerBatchHistory&gt;" style="text;align=left;verticalAlign=top;spacingLeft=4;spacingRight=4;overflow=hidden;rotatable=0;points=[[0,0.5],[1,0.5]];portConstraint=eastwest;rounded=0;shadow=0;html=0;" vertex="1" parent="zkfFHV4jXpPFQw0GAbJ--0">
          <mxGeometry y="130" width="280" height="30" as="geometry" />
        </mxCell>
        <mxCell id="zkfFHV4jXpPFQw0GAbJ--4" value="" style="line;html=1;strokeWidth=1;align=left;verticalAlign=middle;spacingTop=-1;spacingLeft=3;spacingRight=3;rotatable=0;labelPosition=right;points=[];portConstraint=eastwest;" parent="zkfFHV4jXpPFQw0GAbJ--0" vertex="1">
          <mxGeometry y="160" width="280" height="8" as="geometry" />
        </mxCell>
        <mxCell id="zkfFHV4jXpPFQw0GAbJ--5" value="+joinBatch(batch: Batch): void&#xa;+leaveBatch(batch: Batch): void&#xa;+rateLecture(lecture: Lecture,ratingValue: int): void" style="text;align=left;verticalAlign=top;spacingLeft=4;spacingRight=4;overflow=hidden;rotatable=0;points=[[0,0.5],[1,0.5]];portConstraint=eastwest;" parent="zkfFHV4jXpPFQw0GAbJ--0" vertex="1">
          <mxGeometry y="168" width="280" height="52" as="geometry" />
        </mxCell>
        <mxCell id="zkfFHV4jXpPFQw0GAbJ--17" value="Batch" style="swimlane;fontStyle=1;align=center;verticalAlign=top;childLayout=stackLayout;horizontal=1;startSize=26;horizontalStack=0;resizeParent=1;resizeLast=0;collapsible=1;marginBottom=0;rounded=0;shadow=0;strokeWidth=1;fontSize=14;" parent="WIyWlLk6GJQsqaUBKTNV-1" vertex="1">
          <mxGeometry x="448" y="90" width="242" height="240" as="geometry">
            <mxRectangle x="550" y="140" width="160" height="26" as="alternateBounds" />
          </mxGeometry>
        </mxCell>
        <mxCell id="zkfFHV4jXpPFQw0GAbJ--18" value="+batch_id: int" style="text;align=left;verticalAlign=top;spacingLeft=4;spacingRight=4;overflow=hidden;rotatable=0;points=[[0,0.5],[1,0.5]];portConstraint=eastwest;" parent="zkfFHV4jXpPFQw0GAbJ--17" vertex="1">
          <mxGeometry y="26" width="242" height="26" as="geometry" />
        </mxCell>
        <mxCell id="zkfFHV4jXpPFQw0GAbJ--19" value="+name: String" style="text;align=left;verticalAlign=top;spacingLeft=4;spacingRight=4;overflow=hidden;rotatable=0;points=[[0,0.5],[1,0.5]];portConstraint=eastwest;rounded=0;shadow=0;html=0;" parent="zkfFHV4jXpPFQw0GAbJ--17" vertex="1">
          <mxGeometry y="52" width="242" height="26" as="geometry" />
        </mxCell>
        <mxCell id="zkfFHV4jXpPFQw0GAbJ--20" value="+schedule: Schedule" style="text;align=left;verticalAlign=top;spacingLeft=4;spacingRight=4;overflow=hidden;rotatable=0;points=[[0,0.5],[1,0.5]];portConstraint=eastwest;rounded=0;shadow=0;html=0;" parent="zkfFHV4jXpPFQw0GAbJ--17" vertex="1">
          <mxGeometry y="78" width="242" height="26" as="geometry" />
        </mxCell>
        <mxCell id="zkfFHV4jXpPFQw0GAbJ--21" value="-learners: List&lt;Learner&gt;" style="text;align=left;verticalAlign=top;spacingLeft=4;spacingRight=4;overflow=hidden;rotatable=0;points=[[0,0.5],[1,0.5]];portConstraint=eastwest;rounded=0;shadow=0;html=0;" parent="zkfFHV4jXpPFQw0GAbJ--17" vertex="1">
          <mxGeometry y="104" width="242" height="26" as="geometry" />
        </mxCell>
        <mxCell id="zkfFHV4jXpPFQw0GAbJ--22" value="+lectures: List&lt;Lecture&gt;" style="text;align=left;verticalAlign=top;spacingLeft=4;spacingRight=4;overflow=hidden;rotatable=0;points=[[0,0.5],[1,0.5]];portConstraint=eastwest;rounded=0;shadow=0;html=0;" parent="zkfFHV4jXpPFQw0GAbJ--17" vertex="1">
          <mxGeometry y="130" width="242" height="26" as="geometry" />
        </mxCell>
        <mxCell id="zkfFHV4jXpPFQw0GAbJ--23" value="" style="line;html=1;strokeWidth=1;align=left;verticalAlign=middle;spacingTop=-1;spacingLeft=3;spacingRight=3;rotatable=0;labelPosition=right;points=[];portConstraint=eastwest;" parent="zkfFHV4jXpPFQw0GAbJ--17" vertex="1">
          <mxGeometry y="156" width="242" height="8" as="geometry" />
        </mxCell>
        <mxCell id="zkfFHV4jXpPFQw0GAbJ--24" value="+addLearner(learner: Learner): void&#xa;+removeLearner(learner: Learner): void&#xa;+scheduleLecture(lecture: Lecture): void" style="text;align=left;verticalAlign=top;spacingLeft=4;spacingRight=4;overflow=hidden;rotatable=0;points=[[0,0.5],[1,0.5]];portConstraint=eastwest;" parent="zkfFHV4jXpPFQw0GAbJ--17" vertex="1">
          <mxGeometry y="164" width="242" height="76" as="geometry" />
        </mxCell>
        <mxCell id="zkfFHV4jXpPFQw0GAbJ--26" value="" style="endArrow=open;shadow=0;strokeWidth=1;rounded=0;curved=0;endFill=0;edgeStyle=elbowEdgeStyle;elbow=vertical;" parent="WIyWlLk6GJQsqaUBKTNV-1" source="zkfFHV4jXpPFQw0GAbJ--0" target="zkfFHV4jXpPFQw0GAbJ--17" edge="1">
          <mxGeometry x="0.5" y="41" relative="1" as="geometry">
            <mxPoint x="320" y="162" as="sourcePoint" />
            <mxPoint x="480" y="162" as="targetPoint" />
            <mxPoint x="-40" y="32" as="offset" />
          </mxGeometry>
        </mxCell>
        <mxCell id="zkfFHV4jXpPFQw0GAbJ--27" value="1" style="resizable=0;align=left;verticalAlign=bottom;labelBackgroundColor=none;fontSize=12;fontStyle=1" parent="zkfFHV4jXpPFQw0GAbJ--26" connectable="0" vertex="1">
          <mxGeometry x="-1" relative="1" as="geometry">
            <mxPoint x="3" y="4" as="offset" />
          </mxGeometry>
        </mxCell>
        <mxCell id="zkfFHV4jXpPFQw0GAbJ--28" value="N" style="resizable=0;align=right;verticalAlign=bottom;labelBackgroundColor=none;fontSize=12;fontStyle=1" parent="zkfFHV4jXpPFQw0GAbJ--26" connectable="0" vertex="1">
          <mxGeometry x="1" relative="1" as="geometry">
            <mxPoint x="-14" y="5" as="offset" />
          </mxGeometry>
        </mxCell>
        <mxCell id="ysmQvF6z4jJgy9oGwFPe-2" value="Schedule" style="swimlane;fontStyle=1;align=center;verticalAlign=top;childLayout=stackLayout;horizontal=1;startSize=26;horizontalStack=0;resizeParent=1;resizeLast=0;collapsible=1;marginBottom=0;rounded=0;shadow=0;strokeWidth=1;fontSize=14;" vertex="1" parent="WIyWlLk6GJQsqaUBKTNV-1">
          <mxGeometry x="60" y="350" width="280" height="170" as="geometry">
            <mxRectangle x="550" y="140" width="160" height="26" as="alternateBounds" />
          </mxGeometry>
        </mxCell>
        <mxCell id="ysmQvF6z4jJgy9oGwFPe-3" value="+schedule_id: int" style="text;align=left;verticalAlign=top;spacingLeft=4;spacingRight=4;overflow=hidden;rotatable=0;points=[[0,0.5],[1,0.5]];portConstraint=eastwest;" vertex="1" parent="ysmQvF6z4jJgy9oGwFPe-2">
          <mxGeometry y="26" width="280" height="26" as="geometry" />
        </mxCell>
        <mxCell id="ysmQvF6z4jJgy9oGwFPe-4" value="+name: String" style="text;align=left;verticalAlign=top;spacingLeft=4;spacingRight=4;overflow=hidden;rotatable=0;points=[[0,0.5],[1,0.5]];portConstraint=eastwest;rounded=0;shadow=0;html=0;" vertex="1" parent="ysmQvF6z4jJgy9oGwFPe-2">
          <mxGeometry y="52" width="280" height="26" as="geometry" />
        </mxCell>
        <mxCell id="ysmQvF6z4jJgy9oGwFPe-5" value="+days: List&lt;Enum&gt;Â " style="text;align=left;verticalAlign=top;spacingLeft=4;spacingRight=4;overflow=hidden;rotatable=0;points=[[0,0.5],[1,0.5]];portConstraint=eastwest;rounded=0;shadow=0;html=0;" vertex="1" parent="ysmQvF6z4jJgy9oGwFPe-2">
          <mxGeometry y="78" width="280" height="26" as="geometry" />
        </mxCell>
        <mxCell id="ysmQvF6z4jJgy9oGwFPe-6" value="+time: Time" style="text;align=left;verticalAlign=top;spacingLeft=4;spacingRight=4;overflow=hidden;rotatable=0;points=[[0,0.5],[1,0.5]];portConstraint=eastwest;rounded=0;shadow=0;html=0;" vertex="1" parent="ysmQvF6z4jJgy9oGwFPe-2">
          <mxGeometry y="104" width="280" height="26" as="geometry" />
        </mxCell>
        <mxCell id="ysmQvF6z4jJgy9oGwFPe-8" value="" style="line;html=1;strokeWidth=1;align=left;verticalAlign=middle;spacingTop=-1;spacingLeft=3;spacingRight=3;rotatable=0;labelPosition=right;points=[];portConstraint=eastwest;" vertex="1" parent="ysmQvF6z4jJgy9oGwFPe-2">
          <mxGeometry y="130" width="280" height="8" as="geometry" />
        </mxCell>
        <mxCell id="ysmQvF6z4jJgy9oGwFPe-9" value="+getScheduleDetails(): String" style="text;align=left;verticalAlign=top;spacingLeft=4;spacingRight=4;overflow=hidden;rotatable=0;points=[[0,0.5],[1,0.5]];portConstraint=eastwest;" vertex="1" parent="ysmQvF6z4jJgy9oGwFPe-2">
          <mxGeometry y="138" width="280" height="32" as="geometry" />
        </mxCell>
        <mxCell id="ysmQvF6z4jJgy9oGwFPe-10" value="Â«EnumerationÂ»&lt;br&gt;&lt;b&gt;Schedule_days&lt;br&gt;&lt;br&gt;&lt;/b&gt;Monday&quot;, &quot;Wednesday&quot;, &quot;Friday&lt;b&gt;&lt;br&gt;&lt;br&gt;&lt;/b&gt;" style="html=1;whiteSpace=wrap;" vertex="1" parent="WIyWlLk6GJQsqaUBKTNV-1">
          <mxGeometry x="452" y="560" width="242" height="80" as="geometry" />
        </mxCell>
        <mxCell id="ysmQvF6z4jJgy9oGwFPe-11" value="Lecture" style="swimlane;fontStyle=1;align=center;verticalAlign=top;childLayout=stackLayout;horizontal=1;startSize=26;horizontalStack=0;resizeParent=1;resizeLast=0;collapsible=1;marginBottom=0;rounded=0;shadow=0;strokeWidth=1;fontSize=14;" vertex="1" parent="WIyWlLk6GJQsqaUBKTNV-1">
          <mxGeometry x="790" y="90" width="242" height="210" as="geometry">
            <mxRectangle x="550" y="140" width="160" height="26" as="alternateBounds" />
          </mxGeometry>
        </mxCell>
        <mxCell id="ysmQvF6z4jJgy9oGwFPe-12" value="+lecture_id: int" style="text;align=left;verticalAlign=top;spacingLeft=4;spacingRight=4;overflow=hidden;rotatable=0;points=[[0,0.5],[1,0.5]];portConstraint=eastwest;" vertex="1" parent="ysmQvF6z4jJgy9oGwFPe-11">
          <mxGeometry y="26" width="242" height="26" as="geometry" />
        </mxCell>
        <mxCell id="ysmQvF6z4jJgy9oGwFPe-13" value="+date: Date" style="text;align=left;verticalAlign=top;spacingLeft=4;spacingRight=4;overflow=hidden;rotatable=0;points=[[0,0.5],[1,0.5]];portConstraint=eastwest;rounded=0;shadow=0;html=0;" vertex="1" parent="ysmQvF6z4jJgy9oGwFPe-11">
          <mxGeometry y="52" width="242" height="26" as="geometry" />
        </mxCell>
        <mxCell id="ysmQvF6z4jJgy9oGwFPe-14" value="+batch: Batch" style="text;align=left;verticalAlign=top;spacingLeft=4;spacingRight=4;overflow=hidden;rotatable=0;points=[[0,0.5],[1,0.5]];portConstraint=eastwest;rounded=0;shadow=0;html=0;" vertex="1" parent="ysmQvF6z4jJgy9oGwFPe-11">
          <mxGeometry y="78" width="242" height="26" as="geometry" />
        </mxCell>
        <mxCell id="ysmQvF6z4jJgy9oGwFPe-15" value="+instructor: Instructor" style="text;align=left;verticalAlign=top;spacingLeft=4;spacingRight=4;overflow=hidden;rotatable=0;points=[[0,0.5],[1,0.5]];portConstraint=eastwest;rounded=0;shadow=0;html=0;" vertex="1" parent="ysmQvF6z4jJgy9oGwFPe-11">
          <mxGeometry y="104" width="242" height="26" as="geometry" />
        </mxCell>
        <mxCell id="ysmQvF6z4jJgy9oGwFPe-16" value="-ratings: List&lt;Rating&gt;" style="text;align=left;verticalAlign=top;spacingLeft=4;spacingRight=4;overflow=hidden;rotatable=0;points=[[0,0.5],[1,0.5]];portConstraint=eastwest;rounded=0;shadow=0;html=0;" vertex="1" parent="ysmQvF6z4jJgy9oGwFPe-11">
          <mxGeometry y="130" width="242" height="26" as="geometry" />
        </mxCell>
        <mxCell id="ysmQvF6z4jJgy9oGwFPe-17" value="" style="line;html=1;strokeWidth=1;align=left;verticalAlign=middle;spacingTop=-1;spacingLeft=3;spacingRight=3;rotatable=0;labelPosition=right;points=[];portConstraint=eastwest;" vertex="1" parent="ysmQvF6z4jJgy9oGwFPe-11">
          <mxGeometry y="156" width="242" height="8" as="geometry" />
        </mxCell>
        <mxCell id="ysmQvF6z4jJgy9oGwFPe-18" value="+addRating(rating: Rating): void&#xa;+getAverageRating(): float" style="text;align=left;verticalAlign=top;spacingLeft=4;spacingRight=4;overflow=hidden;rotatable=0;points=[[0,0.5],[1,0.5]];portConstraint=eastwest;" vertex="1" parent="ysmQvF6z4jJgy9oGwFPe-11">
          <mxGeometry y="164" width="242" height="46" as="geometry" />
        </mxCell>
        <mxCell id="ysmQvF6z4jJgy9oGwFPe-19" value="Instructor" style="swimlane;fontStyle=1;align=center;verticalAlign=top;childLayout=stackLayout;horizontal=1;startSize=26;horizontalStack=0;resizeParent=1;resizeLast=0;collapsible=1;marginBottom=0;rounded=0;shadow=0;strokeWidth=1;fontSize=14;" vertex="1" parent="WIyWlLk6GJQsqaUBKTNV-1">
          <mxGeometry x="790" y="450" width="242" height="210" as="geometry">
            <mxRectangle x="550" y="140" width="160" height="26" as="alternateBounds" />
          </mxGeometry>
        </mxCell>
        <mxCell id="ysmQvF6z4jJgy9oGwFPe-20" value="+instructor_id: int" style="text;align=left;verticalAlign=top;spacingLeft=4;spacingRight=4;overflow=hidden;rotatable=0;points=[[0,0.5],[1,0.5]];portConstraint=eastwest;" vertex="1" parent="ysmQvF6z4jJgy9oGwFPe-19">
          <mxGeometry y="26" width="242" height="26" as="geometry" />
        </mxCell>
        <mxCell id="ysmQvF6z4jJgy9oGwFPe-21" value="+name: String" style="text;align=left;verticalAlign=top;spacingLeft=4;spacingRight=4;overflow=hidden;rotatable=0;points=[[0,0.5],[1,0.5]];portConstraint=eastwest;rounded=0;shadow=0;html=0;" vertex="1" parent="ysmQvF6z4jJgy9oGwFPe-19">
          <mxGeometry y="52" width="242" height="26" as="geometry" />
        </mxCell>
        <mxCell id="ysmQvF6z4jJgy9oGwFPe-22" value="+email: String" style="text;align=left;verticalAlign=top;spacingLeft=4;spacingRight=4;overflow=hidden;rotatable=0;points=[[0,0.5],[1,0.5]];portConstraint=eastwest;rounded=0;shadow=0;html=0;" vertex="1" parent="ysmQvF6z4jJgy9oGwFPe-19">
          <mxGeometry y="78" width="242" height="26" as="geometry" />
        </mxCell>
        <mxCell id="ysmQvF6z4jJgy9oGwFPe-23" value="-lectures: List&lt;Lecture&gt;" style="text;align=left;verticalAlign=top;spacingLeft=4;spacingRight=4;overflow=hidden;rotatable=0;points=[[0,0.5],[1,0.5]];portConstraint=eastwest;rounded=0;shadow=0;html=0;" vertex="1" parent="ysmQvF6z4jJgy9oGwFPe-19">
          <mxGeometry y="104" width="242" height="26" as="geometry" />
        </mxCell>
        <mxCell id="ysmQvF6z4jJgy9oGwFPe-24" value="+average_rating: float" style="text;align=left;verticalAlign=top;spacingLeft=4;spacingRight=4;overflow=hidden;rotatable=0;points=[[0,0.5],[1,0.5]];portConstraint=eastwest;rounded=0;shadow=0;html=0;" vertex="1" parent="ysmQvF6z4jJgy9oGwFPe-19">
          <mxGeometry y="130" width="242" height="26" as="geometry" />
        </mxCell>
        <mxCell id="ysmQvF6z4jJgy9oGwFPe-25" value="" style="line;html=1;strokeWidth=1;align=left;verticalAlign=middle;spacingTop=-1;spacingLeft=3;spacingRight=3;rotatable=0;labelPosition=right;points=[];portConstraint=eastwest;" vertex="1" parent="ysmQvF6z4jJgy9oGwFPe-19">
          <mxGeometry y="156" width="242" height="8" as="geometry" />
        </mxCell>
        <mxCell id="ysmQvF6z4jJgy9oGwFPe-26" value="+getAverageRating(): float&#xa;+conductLecture(lecture: Lecture): void" style="text;align=left;verticalAlign=top;spacingLeft=4;spacingRight=4;overflow=hidden;rotatable=0;points=[[0,0.5],[1,0.5]];portConstraint=eastwest;" vertex="1" parent="ysmQvF6z4jJgy9oGwFPe-19">
          <mxGeometry y="164" width="242" height="46" as="geometry" />
        </mxCell>
        <mxCell id="ysmQvF6z4jJgy9oGwFPe-27" value="Rating" style="swimlane;fontStyle=1;align=center;verticalAlign=top;childLayout=stackLayout;horizontal=1;startSize=26;horizontalStack=0;resizeParent=1;resizeLast=0;collapsible=1;marginBottom=0;rounded=0;shadow=0;strokeWidth=1;fontSize=14;" vertex="1" parent="WIyWlLk6GJQsqaUBKTNV-1">
          <mxGeometry x="450" y="370" width="242" height="170" as="geometry">
            <mxRectangle x="550" y="140" width="160" height="26" as="alternateBounds" />
          </mxGeometry>
        </mxCell>
        <mxCell id="ysmQvF6z4jJgy9oGwFPe-28" value="+rating_id: int" style="text;align=left;verticalAlign=top;spacingLeft=4;spacingRight=4;overflow=hidden;rotatable=0;points=[[0,0.5],[1,0.5]];portConstraint=eastwest;" vertex="1" parent="ysmQvF6z4jJgy9oGwFPe-27">
          <mxGeometry y="26" width="242" height="26" as="geometry" />
        </mxCell>
        <mxCell id="ysmQvF6z4jJgy9oGwFPe-29" value="+value: int" style="text;align=left;verticalAlign=top;spacingLeft=4;spacingRight=4;overflow=hidden;rotatable=0;points=[[0,0.5],[1,0.5]];portConstraint=eastwest;rounded=0;shadow=0;html=0;" vertex="1" parent="ysmQvF6z4jJgy9oGwFPe-27">
          <mxGeometry y="52" width="242" height="26" as="geometry" />
        </mxCell>
        <mxCell id="ysmQvF6z4jJgy9oGwFPe-30" value="+learner: Learner" style="text;align=left;verticalAlign=top;spacingLeft=4;spacingRight=4;overflow=hidden;rotatable=0;points=[[0,0.5],[1,0.5]];portConstraint=eastwest;rounded=0;shadow=0;html=0;" vertex="1" parent="ysmQvF6z4jJgy9oGwFPe-27">
          <mxGeometry y="78" width="242" height="26" as="geometry" />
        </mxCell>
        <mxCell id="ysmQvF6z4jJgy9oGwFPe-31" value="+lecture: Lecture" style="text;align=left;verticalAlign=top;spacingLeft=4;spacingRight=4;overflow=hidden;rotatable=0;points=[[0,0.5],[1,0.5]];portConstraint=eastwest;rounded=0;shadow=0;html=0;" vertex="1" parent="ysmQvF6z4jJgy9oGwFPe-27">
          <mxGeometry y="104" width="242" height="26" as="geometry" />
        </mxCell>
        <mxCell id="ysmQvF6z4jJgy9oGwFPe-33" value="" style="line;html=1;strokeWidth=1;align=left;verticalAlign=middle;spacingTop=-1;spacingLeft=3;spacingRight=3;rotatable=0;labelPosition=right;points=[];portConstraint=eastwest;" vertex="1" parent="ysmQvF6z4jJgy9oGwFPe-27">
          <mxGeometry y="130" width="242" height="8" as="geometry" />
        </mxCell>
        <mxCell id="ysmQvF6z4jJgy9oGwFPe-34" value="+getRatingDetails(): String" style="text;align=left;verticalAlign=top;spacingLeft=4;spacingRight=4;overflow=hidden;rotatable=0;points=[[0,0.5],[1,0.5]];portConstraint=eastwest;" vertex="1" parent="ysmQvF6z4jJgy9oGwFPe-27">
          <mxGeometry y="138" width="242" height="32" as="geometry" />
        </mxCell>
        <mxCell id="ysmQvF6z4jJgy9oGwFPe-35" value="LearnerBatchHistory" style="swimlane;fontStyle=1;align=center;verticalAlign=top;childLayout=stackLayout;horizontal=1;startSize=26;horizontalStack=0;resizeParent=1;resizeLast=0;collapsible=1;marginBottom=0;rounded=0;shadow=0;strokeWidth=1;fontSize=14;" vertex="1" parent="WIyWlLk6GJQsqaUBKTNV-1">
          <mxGeometry x="60" y="540" width="280" height="190" as="geometry">
            <mxRectangle x="550" y="140" width="160" height="26" as="alternateBounds" />
          </mxGeometry>
        </mxCell>
        <mxCell id="ysmQvF6z4jJgy9oGwFPe-36" value="+history_id: int" style="text;align=left;verticalAlign=top;spacingLeft=4;spacingRight=4;overflow=hidden;rotatable=0;points=[[0,0.5],[1,0.5]];portConstraint=eastwest;" vertex="1" parent="ysmQvF6z4jJgy9oGwFPe-35">
          <mxGeometry y="26" width="280" height="26" as="geometry" />
        </mxCell>
        <mxCell id="ysmQvF6z4jJgy9oGwFPe-37" value="+learner: Learner" style="text;align=left;verticalAlign=top;spacingLeft=4;spacingRight=4;overflow=hidden;rotatable=0;points=[[0,0.5],[1,0.5]];portConstraint=eastwest;rounded=0;shadow=0;html=0;" vertex="1" parent="ysmQvF6z4jJgy9oGwFPe-35">
          <mxGeometry y="52" width="280" height="26" as="geometry" />
        </mxCell>
        <mxCell id="ysmQvF6z4jJgy9oGwFPe-38" value="+batch: Batch" style="text;align=left;verticalAlign=top;spacingLeft=4;spacingRight=4;overflow=hidden;rotatable=0;points=[[0,0.5],[1,0.5]];portConstraint=eastwest;rounded=0;shadow=0;html=0;" vertex="1" parent="ysmQvF6z4jJgy9oGwFPe-35">
          <mxGeometry y="78" width="280" height="26" as="geometry" />
        </mxCell>
        <mxCell id="ysmQvF6z4jJgy9oGwFPe-39" value="+entry_date: Date" style="text;align=left;verticalAlign=top;spacingLeft=4;spacingRight=4;overflow=hidden;rotatable=0;points=[[0,0.5],[1,0.5]];portConstraint=eastwest;rounded=0;shadow=0;html=0;" vertex="1" parent="ysmQvF6z4jJgy9oGwFPe-35">
          <mxGeometry y="104" width="280" height="26" as="geometry" />
        </mxCell>
        <mxCell id="ysmQvF6z4jJgy9oGwFPe-40" value="+exit_date: Date" style="text;align=left;verticalAlign=top;spacingLeft=4;spacingRight=4;overflow=hidden;rotatable=0;points=[[0,0.5],[1,0.5]];portConstraint=eastwest;rounded=0;shadow=0;html=0;" vertex="1" parent="ysmQvF6z4jJgy9oGwFPe-35">
          <mxGeometry y="130" width="280" height="26" as="geometry" />
        </mxCell>
        <mxCell id="ysmQvF6z4jJgy9oGwFPe-41" value="" style="line;html=1;strokeWidth=1;align=left;verticalAlign=middle;spacingTop=-1;spacingLeft=3;spacingRight=3;rotatable=0;labelPosition=right;points=[];portConstraint=eastwest;" vertex="1" parent="ysmQvF6z4jJgy9oGwFPe-35">
          <mxGeometry y="156" width="280" height="8" as="geometry" />
        </mxCell>
        <mxCell id="ysmQvF6z4jJgy9oGwFPe-42" value="+getHistoryDetails(): String" style="text;align=left;verticalAlign=top;spacingLeft=4;spacingRight=4;overflow=hidden;rotatable=0;points=[[0,0.5],[1,0.5]];portConstraint=eastwest;" vertex="1" parent="ysmQvF6z4jJgy9oGwFPe-35">
          <mxGeometry y="164" width="280" height="26" as="geometry" />
        </mxCell>
        <mxCell id="ysmQvF6z4jJgy9oGwFPe-43" value="Â«InterfaceÂ»&lt;br&gt;RatingCalculable&lt;b&gt;&lt;br&gt;&lt;br&gt;&lt;/b&gt;+getAverageRating(): float&lt;b&gt;&lt;br&gt;&lt;br&gt;&lt;/b&gt;" style="html=1;whiteSpace=wrap;" vertex="1" parent="WIyWlLk6GJQsqaUBKTNV-1">
          <mxGeometry x="852" y="340" width="180" height="80" as="geometry" />
        </mxCell>
        <mxCell id="ysmQvF6z4jJgy9oGwFPe-51" style="edgeStyle=orthogonalEdgeStyle;rounded=0;orthogonalLoop=1;jettySize=auto;html=1;entryX=0.473;entryY=1.004;entryDx=0;entryDy=0;entryPerimeter=0;endArrow=open;endFill=0;" edge="1" parent="WIyWlLk6GJQsqaUBKTNV-1">
          <mxGeometry relative="1" as="geometry">
            <mxPoint x="841" y="450" as="sourcePoint" />
            <mxPoint x="834.4659999999999" y="300.18399999999997" as="targetPoint" />
          </mxGeometry>
        </mxCell>
        <mxCell id="ysmQvF6z4jJgy9oGwFPe-52" value="&lt;b&gt;N&lt;/b&gt;" style="edgeLabel;html=1;align=center;verticalAlign=middle;resizable=0;points=[];" vertex="1" connectable="0" parent="ysmQvF6z4jJgy9oGwFPe-51">
          <mxGeometry x="0.5779" relative="1" as="geometry">
            <mxPoint as="offset" />
          </mxGeometry>
        </mxCell>
        <mxCell id="ysmQvF6z4jJgy9oGwFPe-53" value="&lt;b&gt;1&lt;/b&gt;" style="edgeLabel;html=1;align=center;verticalAlign=middle;resizable=0;points=[];" vertex="1" connectable="0" parent="ysmQvF6z4jJgy9oGwFPe-51">
          <mxGeometry x="-0.7081" relative="1" as="geometry">
            <mxPoint as="offset" />
          </mxGeometry>
        </mxCell>
        <mxCell id="ysmQvF6z4jJgy9oGwFPe-54" style="edgeStyle=orthogonalEdgeStyle;rounded=0;orthogonalLoop=1;jettySize=auto;html=1;exitX=0;exitY=0.5;exitDx=0;exitDy=0;entryX=1;entryY=0.5;entryDx=0;entryDy=0;" edge="1" parent="WIyWlLk6GJQsqaUBKTNV-1" source="ysmQvF6z4jJgy9oGwFPe-16" target="ysmQvF6z4jJgy9oGwFPe-31">
          <mxGeometry relative="1" as="geometry">
            <Array as="points">
              <mxPoint x="790" y="240" />
              <mxPoint x="741" y="240" />
              <mxPoint x="741" y="487" />
            </Array>
          </mxGeometry>
        </mxCell>
        <mxCell id="ysmQvF6z4jJgy9oGwFPe-59" value="&lt;b&gt;1&lt;/b&gt;" style="edgeLabel;html=1;align=center;verticalAlign=middle;resizable=0;points=[];" vertex="1" connectable="0" parent="ysmQvF6z4jJgy9oGwFPe-54">
          <mxGeometry x="-0.8557" y="1" relative="1" as="geometry">
            <mxPoint as="offset" />
          </mxGeometry>
        </mxCell>
        <mxCell id="ysmQvF6z4jJgy9oGwFPe-60" value="&lt;b&gt;N&lt;/b&gt;" style="edgeLabel;html=1;align=center;verticalAlign=middle;resizable=0;points=[];" vertex="1" connectable="0" parent="ysmQvF6z4jJgy9oGwFPe-54">
          <mxGeometry x="0.8205" y="1" relative="1" as="geometry">
            <mxPoint as="offset" />
          </mxGeometry>
        </mxCell>
        <mxCell id="ysmQvF6z4jJgy9oGwFPe-56" style="edgeStyle=orthogonalEdgeStyle;rounded=0;orthogonalLoop=1;jettySize=auto;html=1;exitX=1;exitY=0.5;exitDx=0;exitDy=0;entryX=0;entryY=0.5;entryDx=0;entryDy=0;endArrow=open;endFill=0;" edge="1" parent="WIyWlLk6GJQsqaUBKTNV-1" source="zkfFHV4jXpPFQw0GAbJ--22" target="ysmQvF6z4jJgy9oGwFPe-15">
          <mxGeometry relative="1" as="geometry" />
        </mxCell>
        <mxCell id="ysmQvF6z4jJgy9oGwFPe-57" value="&lt;b&gt;N&lt;/b&gt;" style="edgeLabel;html=1;align=center;verticalAlign=middle;resizable=0;points=[];" vertex="1" connectable="0" parent="ysmQvF6z4jJgy9oGwFPe-56">
          <mxGeometry x="0.6921" y="1" relative="1" as="geometry">
            <mxPoint as="offset" />
          </mxGeometry>
        </mxCell>
        <mxCell id="ysmQvF6z4jJgy9oGwFPe-58" value="&lt;b&gt;1&lt;/b&gt;" style="edgeLabel;html=1;align=center;verticalAlign=middle;resizable=0;points=[];" vertex="1" connectable="0" parent="ysmQvF6z4jJgy9oGwFPe-56">
          <mxGeometry x="-0.7841" relative="1" as="geometry">
            <mxPoint as="offset" />
          </mxGeometry>
        </mxCell>
        <mxCell id="ysmQvF6z4jJgy9oGwFPe-61" style="edgeStyle=orthogonalEdgeStyle;rounded=0;orthogonalLoop=1;jettySize=auto;html=1;exitX=1;exitY=0.5;exitDx=0;exitDy=0;entryX=0;entryY=0.5;entryDx=0;entryDy=0;endArrow=diamond;endFill=1;" edge="1" parent="WIyWlLk6GJQsqaUBKTNV-1" source="ysmQvF6z4jJgy9oGwFPe-3" target="zkfFHV4jXpPFQw0GAbJ--20">
          <mxGeometry relative="1" as="geometry" />
        </mxCell>
        <mxCell id="ysmQvF6z4jJgy9oGwFPe-63" style="edgeStyle=orthogonalEdgeStyle;rounded=0;orthogonalLoop=1;jettySize=auto;html=1;entryX=1.008;entryY=-0.131;entryDx=0;entryDy=0;entryPerimeter=0;endArrow=open;endFill=0;dashed=1;" edge="1" parent="WIyWlLk6GJQsqaUBKTNV-1" source="ysmQvF6z4jJgy9oGwFPe-24" target="ysmQvF6z4jJgy9oGwFPe-29">
          <mxGeometry relative="1" as="geometry">
            <Array as="points">
              <mxPoint x="760" y="513" />
              <mxPoint x="760" y="419" />
            </Array>
          </mxGeometry>
        </mxCell>
        <mxCell id="ysmQvF6z4jJgy9oGwFPe-65" style="edgeStyle=orthogonalEdgeStyle;rounded=0;orthogonalLoop=1;jettySize=auto;html=1;exitX=1;exitY=0.5;exitDx=0;exitDy=0;entryX=1;entryY=0.5;entryDx=0;entryDy=0;endArrow=block;endFill=0;" edge="1" parent="WIyWlLk6GJQsqaUBKTNV-1" source="ysmQvF6z4jJgy9oGwFPe-18" target="ysmQvF6z4jJgy9oGwFPe-43">
          <mxGeometry relative="1" as="geometry" />
        </mxCell>
        <mxCell id="ysmQvF6z4jJgy9oGwFPe-66" style="edgeStyle=orthogonalEdgeStyle;rounded=0;orthogonalLoop=1;jettySize=auto;html=1;exitX=1;exitY=0.5;exitDx=0;exitDy=0;entryX=1;entryY=0.75;entryDx=0;entryDy=0;endArrow=block;endFill=0;" edge="1" parent="WIyWlLk6GJQsqaUBKTNV-1" source="ysmQvF6z4jJgy9oGwFPe-26" target="ysmQvF6z4jJgy9oGwFPe-43">
          <mxGeometry relative="1" as="geometry" />
        </mxCell>
        <mxCell id="ysmQvF6z4jJgy9oGwFPe-67" style="edgeStyle=orthogonalEdgeStyle;rounded=0;orthogonalLoop=1;jettySize=auto;html=1;exitX=1;exitY=0.5;exitDx=0;exitDy=0;entryX=0;entryY=0.5;entryDx=0;entryDy=0;endArrow=block;endFill=0;" edge="1" parent="WIyWlLk6GJQsqaUBKTNV-1" source="ysmQvF6z4jJgy9oGwFPe-5" target="ysmQvF6z4jJgy9oGwFPe-10">
          <mxGeometry relative="1" as="geometry" />
        </mxCell>
        <mxCell id="ysmQvF6z4jJgy9oGwFPe-69" style="edgeStyle=orthogonalEdgeStyle;rounded=0;orthogonalLoop=1;jettySize=auto;html=1;exitX=0;exitY=0.5;exitDx=0;exitDy=0;entryX=0;entryY=0.5;entryDx=0;entryDy=0;endArrow=diamond;endFill=1;" edge="1" parent="WIyWlLk6GJQsqaUBKTNV-1" source="ysmQvF6z4jJgy9oGwFPe-37" target="ysmQvF6z4jJgy9oGwFPe-1">
          <mxGeometry relative="1" as="geometry" />
        </mxCell>
      </root>
    </mxGraphModel>
  </diagram>
</mxfile>
